<svg width="1894" height="1209" viewBox="0 0 1894 1209" fill="none" xmlns="http://www.w3.org/2000/svg">
<rect x="-26" width="1920" height="1209" fill="url(#paint0_linear_0_1)"/>
<path fill-rule="evenodd" clip-rule="evenodd" d="M1196.54 862.136C1196.33 862.226 1196.13 862.358 1195.96 862.525C1195.8 862.69 1195.67 862.887 1195.58 863.104C1195.49 863.321 1195.44 863.554 1195.44 863.789C1195.44 864.023 1195.49 864.256 1195.58 864.473C1195.67 864.69 1195.8 864.887 1195.96 865.053L1203.63 872.715H1159.79C1159.31 872.715 1158.86 872.903 1158.52 873.238C1158.19 873.573 1158 874.027 1158 874.5C1158 874.974 1158.19 875.428 1158.52 875.763C1158.86 876.098 1159.31 876.286 1159.79 876.286H1203.63L1195.96 883.948C1195.63 884.284 1195.44 884.738 1195.44 885.212C1195.44 885.687 1195.63 886.141 1195.96 886.476C1196.3 886.812 1196.75 887 1197.23 887C1197.7 887 1198.16 886.812 1198.49 886.476L1209.2 875.764C1209.37 875.599 1209.5 875.402 1209.59 875.185C1209.68 874.968 1209.73 874.735 1209.73 874.5C1209.73 874.266 1209.68 874.033 1209.59 873.816C1209.5 873.599 1209.37 873.402 1209.2 873.236L1198.49 862.525C1198.33 862.358 1198.13 862.226 1197.91 862.136C1197.7 862.046 1197.46 862 1197.23 862C1196.99 862 1196.76 862.046 1196.54 862.136Z" fill="black"/>
<path opacity="0.3" fill-rule="evenodd" clip-rule="evenodd" d="M1106.09 866.916C1106.22 866.971 1106.34 867.052 1106.44 867.154C1106.54 867.256 1106.63 867.377 1106.68 867.51C1106.74 867.643 1106.76 867.786 1106.76 867.93C1106.76 868.074 1106.74 868.216 1106.68 868.349C1106.63 868.482 1106.54 868.603 1106.44 868.705L1101.74 873.405H1128.63C1128.92 873.405 1129.2 873.52 1129.41 873.726C1129.61 873.931 1129.73 874.21 1129.73 874.5C1129.73 874.79 1129.61 875.069 1129.41 875.274C1129.2 875.48 1128.92 875.595 1128.63 875.595H1101.74L1106.44 880.295C1106.65 880.501 1106.76 880.78 1106.76 881.071C1106.76 881.361 1106.65 881.64 1106.44 881.846C1106.24 882.052 1105.96 882.167 1105.67 882.167C1105.38 882.167 1105.1 882.052 1104.89 881.846L1098.32 875.275C1098.22 875.174 1098.14 875.053 1098.08 874.92C1098.03 874.787 1098 874.644 1098 874.5C1098 874.356 1098.03 874.213 1098.08 874.08C1098.14 873.947 1098.22 873.826 1098.32 873.725L1104.89 867.154C1104.99 867.052 1105.11 866.971 1105.25 866.916C1105.38 866.861 1105.52 866.833 1105.67 866.833C1105.81 866.833 1105.95 866.861 1106.09 866.916Z" fill="black"/>
<defs>
<linearGradient id="paint0_linear_0_1" x1="934" y1="0" x2="934" y2="1209" gradientUnits="userSpaceOnUse">
<stop stop-color="#ECF0FD" stop-opacity="0"/>
<stop offset="0.14324" stop-color="#ECF0FD" stop-opacity="0.53"/>
<stop offset="0.458333" stop-color="#ECF0FD"/>
<stop offset="0.843325" stop-color="#ECF0FD" stop-opacity="0.43"/>
<stop offset="1" stop-color="#ECF0FD" stop-opacity="0"/>
</linearGradient>
</defs>
</svg>


