<svg width="421" height="722" viewBox="0 0 421 722" fill="none" xmlns="http://www.w3.org/2000/svg">
<circle cx="243.24" cy="717.636" r="3.52358" transform="rotate(-180 243.24 717.636)" fill="#70C217"/>
<circle cx="191.561" cy="717.636" r="3.52358" transform="rotate(-180 191.561 717.636)" fill="#70C217"/>
<circle cx="139.882" cy="717.636" r="3.52358" transform="rotate(-180 139.882 717.636)" fill="#70C217"/>
<circle cx="88.2025" cy="717.636" r="3.52358" transform="rotate(-180 88.2025 717.636)" fill="#70C217"/>
<circle cx="36.5233" cy="717.636" r="3.52358" transform="rotate(-180 36.5233 717.636)" fill="#70C217"/>
<circle cx="243.24" cy="665.957" r="3.52358" transform="rotate(-180 243.24 665.957)" fill="#70C217"/>
<circle cx="191.561" cy="665.957" r="3.52358" transform="rotate(-180 191.561 665.957)" fill="#70C217"/>
<circle cx="139.882" cy="665.957" r="3.52358" transform="rotate(-180 139.882 665.957)" fill="#70C217"/>
<circle cx="88.2025" cy="665.957" r="3.52358" transform="rotate(-180 88.2025 665.957)" fill="#70C217"/>
<circle cx="36.5233" cy="665.957" r="3.52358" transform="rotate(-180 36.5233 665.957)" fill="#70C217"/>
<circle cx="243.24" cy="614.278" r="3.52358" transform="rotate(-180 243.24 614.278)" fill="#70C217"/>
<circle cx="191.561" cy="614.278" r="3.52358" transform="rotate(-180 191.561 614.278)" fill="#70C217"/>
<circle cx="139.882" cy="614.278" r="3.52358" transform="rotate(-180 139.882 614.278)" fill="#70C217"/>
<circle cx="88.2025" cy="614.278" r="3.52358" transform="rotate(-180 88.2025 614.278)" fill="#70C217"/>
<circle cx="36.5233" cy="614.278" r="3.52358" transform="rotate(-180 36.5233 614.278)" fill="#70C217"/>
<circle cx="243.24" cy="562.599" r="3.52358" transform="rotate(-180 243.24 562.599)" fill="#70C217"/>
<circle cx="191.561" cy="562.599" r="3.52358" transform="rotate(-180 191.561 562.599)" fill="#70C217"/>
<circle cx="139.882" cy="562.599" r="3.52358" transform="rotate(-180 139.882 562.599)" fill="#70C217"/>
<circle cx="88.2025" cy="562.599" r="3.52358" transform="rotate(-180 88.2025 562.599)" fill="#70C217"/>
<circle cx="36.5233" cy="562.599" r="3.52358" transform="rotate(-180 36.5233 562.599)" fill="#70C217"/>
<circle cx="243.24" cy="510.92" r="3.52358" transform="rotate(-180 243.24 510.92)" fill="#70C217"/>
<circle cx="191.561" cy="510.92" r="3.52358" transform="rotate(-180 191.561 510.92)" fill="#70C217"/>
<circle cx="139.882" cy="510.92" r="3.52358" transform="rotate(-180 139.882 510.92)" fill="#70C217"/>
<circle cx="88.2025" cy="510.92" r="3.52358" transform="rotate(-180 88.2025 510.92)" fill="#70C217"/>
<circle cx="36.5233" cy="510.92" r="3.52358" transform="rotate(-180 36.5233 510.92)" fill="#70C217"/>
<circle cx="243.24" cy="459.24" r="3.52358" transform="rotate(-180 243.24 459.24)" fill="#70C217"/>
<circle cx="191.561" cy="459.24" r="3.52358" transform="rotate(-180 191.561 459.24)" fill="#70C217"/>
<circle cx="139.882" cy="459.24" r="3.52358" transform="rotate(-180 139.882 459.24)" fill="#70C217"/>
<circle cx="88.2025" cy="459.24" r="3.52358" transform="rotate(-180 88.2025 459.24)" fill="#70C217"/>
<circle cx="36.5233" cy="459.24" r="3.52358" transform="rotate(-180 36.5233 459.24)" fill="#70C217"/>
<circle cx="243.24" cy="407.561" r="3.52358" transform="rotate(-180 243.24 407.561)" fill="#70C217"/>
<circle cx="191.561" cy="407.561" r="3.52358" transform="rotate(-180 191.561 407.561)" fill="#70C217"/>
<circle cx="139.882" cy="407.561" r="3.52358" transform="rotate(-180 139.882 407.561)" fill="#70C217"/>
<circle cx="88.2025" cy="407.561" r="3.52358" transform="rotate(-180 88.2025 407.561)" fill="#70C217"/>
<circle cx="36.5233" cy="407.561" r="3.52358" transform="rotate(-180 36.5233 407.561)" fill="#70C217"/>
<circle cx="243.24" cy="355.882" r="3.52358" transform="rotate(-180 243.24 355.882)" fill="#70C217"/>
<circle cx="191.561" cy="355.882" r="3.52358" transform="rotate(-180 191.561 355.882)" fill="#70C217"/>
<circle cx="139.882" cy="355.882" r="3.52358" transform="rotate(-180 139.882 355.882)" fill="#70C217"/>
<circle cx="88.2025" cy="355.882" r="3.52358" transform="rotate(-180 88.2025 355.882)" fill="#70C217"/>
<circle cx="36.5233" cy="355.882" r="3.52358" transform="rotate(-180 36.5233 355.882)" fill="#70C217"/>
<circle cx="243.24" cy="304.203" r="3.52358" transform="rotate(-180 243.24 304.203)" fill="#70C217"/>
<circle cx="191.561" cy="304.203" r="3.52358" transform="rotate(-180 191.561 304.203)" fill="#70C217"/>
<circle cx="139.882" cy="304.203" r="3.52358" transform="rotate(-180 139.882 304.203)" fill="#70C217"/>
<circle cx="88.2025" cy="304.203" r="3.52358" transform="rotate(-180 88.2025 304.203)" fill="#70C217"/>
<circle cx="36.5233" cy="304.203" r="3.52358" transform="rotate(-180 36.5233 304.203)" fill="#70C217"/>
<circle cx="243.24" cy="252.524" r="3.52358" transform="rotate(-180 243.24 252.524)" fill="#70C217"/>
<circle cx="191.561" cy="252.524" r="3.52358" transform="rotate(-180 191.561 252.524)" fill="#70C217"/>
<circle cx="139.882" cy="252.524" r="3.52358" transform="rotate(-180 139.882 252.524)" fill="#70C217"/>
<circle cx="88.2025" cy="252.524" r="3.52358" transform="rotate(-180 88.2025 252.524)" fill="#70C217"/>
<circle cx="36.5233" cy="252.524" r="3.52358" transform="rotate(-180 36.5233 252.524)" fill="#70C217"/>
<path d="M418.5 245.5C418.5 354.931 332.686 443.5 227 443.5C121.314 443.5 35.5 354.931 35.5 245.5C35.5 136.069 121.314 47.5 227 47.5C332.686 47.5 418.5 136.069 418.5 245.5Z" stroke="#FFBA49" stroke-width="5"/>
<circle cx="32.5" cy="32.5" r="30" stroke="#FFBA49" stroke-width="5"/>
</svg>
